<mxfile host="app.diagrams.net" modified="2024-05-08T05:58:09.559Z" agent="Mozilla/5.0 (Macintosh; Intel Mac OS X 10_15_7) AppleWebKit/537.36 (KHTML, like Gecko) Chrome/123.0.0.0 Safari/537.36 Edg/123.0.0.0" version="24.3.1" etag="SSWSjYYBl0Xd9V9wD-Mf" type="github">
  <diagram name="PÃ¡gina-1" id="U71O_4kZbgGw6TcugaVe">
    <mxGraphModel>
      <root>
        <mxCell id="0" />
        <mxCell id="1" parent="0" />
      </root>
    </mxGraphModel>
  </diagram>
</mxfile>
